<mxfile host="www.draw.io" modified="2019-12-03T06:56:06.041Z" agent="Mozilla/5.0 (Windows NT 10.0; Win64; x64) AppleWebKit/537.36 (KHTML, like Gecko) Chrome/69.0.3497.92 Safari/537.36" etag="iLylado5beDl5a33W3Fe" version="12.3.5" type="github" pages="1">
  <diagram id="Ii1g72xBJ8uRADTBVJAt" name="Page-1">
    <mxGraphModel dx="1408" dy="749" grid="1" gridSize="10" guides="1" tooltips="1" connect="1" arrows="1" fold="1" page="1" pageScale="1" pageWidth="827" pageHeight="1169" math="0" shadow="0">
      <root>
        <mxCell id="0"/>
        <mxCell id="1" parent="0"/>
        <mxCell id="xLD-l3U9SwlHQ7msAyN0-1" value="" style="endArrow=classic;html=1;" edge="1" parent="1">
          <mxGeometry width="50" height="50" relative="1" as="geometry">
            <mxPoint x="412" y="190" as="sourcePoint"/>
            <mxPoint x="412" y="230" as="targetPoint"/>
          </mxGeometry>
        </mxCell>
        <mxCell id="xLD-l3U9SwlHQ7msAyN0-5" value="" style="edgeStyle=orthogonalEdgeStyle;rounded=0;orthogonalLoop=1;jettySize=auto;html=1;" edge="1" parent="1" source="xLD-l3U9SwlHQ7msAyN0-2" target="xLD-l3U9SwlHQ7msAyN0-3">
          <mxGeometry relative="1" as="geometry"/>
        </mxCell>
        <mxCell id="xLD-l3U9SwlHQ7msAyN0-2" value="aria2c初始化" style="rounded=0;whiteSpace=wrap;html=1;" vertex="1" parent="1">
          <mxGeometry x="353" y="230" width="120" height="50" as="geometry"/>
        </mxCell>
        <mxCell id="xLD-l3U9SwlHQ7msAyN0-9" value="" style="edgeStyle=orthogonalEdgeStyle;rounded=0;orthogonalLoop=1;jettySize=auto;html=1;" edge="1" parent="1" source="xLD-l3U9SwlHQ7msAyN0-3" target="xLD-l3U9SwlHQ7msAyN0-6">
          <mxGeometry relative="1" as="geometry"/>
        </mxCell>
        <mxCell id="xLD-l3U9SwlHQ7msAyN0-15" style="edgeStyle=orthogonalEdgeStyle;rounded=0;orthogonalLoop=1;jettySize=auto;html=1;entryX=0;entryY=0.5;entryDx=0;entryDy=0;" edge="1" parent="1" source="xLD-l3U9SwlHQ7msAyN0-3" target="xLD-l3U9SwlHQ7msAyN0-22">
          <mxGeometry relative="1" as="geometry">
            <mxPoint x="520" y="370" as="targetPoint"/>
          </mxGeometry>
        </mxCell>
        <mxCell id="xLD-l3U9SwlHQ7msAyN0-3" value="Commands队列为空？" style="rhombus;whiteSpace=wrap;html=1;" vertex="1" parent="1">
          <mxGeometry x="333" y="330" width="160" height="80" as="geometry"/>
        </mxCell>
        <mxCell id="xLD-l3U9SwlHQ7msAyN0-10" value="" style="edgeStyle=orthogonalEdgeStyle;rounded=0;orthogonalLoop=1;jettySize=auto;html=1;" edge="1" parent="1" source="xLD-l3U9SwlHQ7msAyN0-6" target="xLD-l3U9SwlHQ7msAyN0-7">
          <mxGeometry relative="1" as="geometry"/>
        </mxCell>
        <mxCell id="xLD-l3U9SwlHQ7msAyN0-6" value="执行epoll&lt;br&gt;判断fd是否就绪" style="rounded=0;whiteSpace=wrap;html=1;" vertex="1" parent="1">
          <mxGeometry x="353" y="440" width="120" height="50" as="geometry"/>
        </mxCell>
        <mxCell id="xLD-l3U9SwlHQ7msAyN0-31" style="edgeStyle=orthogonalEdgeStyle;rounded=0;orthogonalLoop=1;jettySize=auto;html=1;exitX=0;exitY=0.5;exitDx=0;exitDy=0;" edge="1" parent="1" source="xLD-l3U9SwlHQ7msAyN0-7">
          <mxGeometry relative="1" as="geometry">
            <mxPoint x="280" y="310" as="targetPoint"/>
            <Array as="points">
              <mxPoint x="280" y="559"/>
              <mxPoint x="280" y="310"/>
            </Array>
          </mxGeometry>
        </mxCell>
        <mxCell id="xLD-l3U9SwlHQ7msAyN0-7" value="从队列中取出每一个command，然后运行" style="rounded=0;whiteSpace=wrap;html=1;" vertex="1" parent="1">
          <mxGeometry x="353" y="534" width="120" height="50" as="geometry"/>
        </mxCell>
        <mxCell id="xLD-l3U9SwlHQ7msAyN0-20" value="开始" style="rounded=1;whiteSpace=wrap;html=1;" vertex="1" parent="1">
          <mxGeometry x="375" y="140" width="77" height="50" as="geometry"/>
        </mxCell>
        <mxCell id="xLD-l3U9SwlHQ7msAyN0-22" value="结束" style="rounded=1;whiteSpace=wrap;html=1;" vertex="1" parent="1">
          <mxGeometry x="540" y="345" width="77" height="50" as="geometry"/>
        </mxCell>
        <mxCell id="xLD-l3U9SwlHQ7msAyN0-29" value="" style="endArrow=classic;html=1;" edge="1" parent="1">
          <mxGeometry width="50" height="50" relative="1" as="geometry">
            <mxPoint x="280" y="310" as="sourcePoint"/>
            <mxPoint x="410" y="310" as="targetPoint"/>
          </mxGeometry>
        </mxCell>
        <mxCell id="xLD-l3U9SwlHQ7msAyN0-32" value="Y" style="text;html=1;align=center;verticalAlign=middle;resizable=0;points=[];;autosize=1;" vertex="1" parent="1">
          <mxGeometry x="500" y="345" width="20" height="20" as="geometry"/>
        </mxCell>
        <mxCell id="xLD-l3U9SwlHQ7msAyN0-33" value="N" style="text;html=1;align=center;verticalAlign=middle;resizable=0;points=[];;autosize=1;" vertex="1" parent="1">
          <mxGeometry x="420" y="410" width="20" height="20" as="geometry"/>
        </mxCell>
      </root>
    </mxGraphModel>
  </diagram>
</mxfile>
